<?xml version="1.0" encoding="UTF-8"?>
<!DOCTYPE svg PUBLIC "-//W3C//DTD SVG 1.1//EN" "http://www.w3.org/Graphics/SVG/1.1/DTD/svg11.dtd">
<!-- Creator: CorelDRAW -->
<svg xmlns="http://www.w3.org/2000/svg" xml:space="preserve" width="2.40738in" height="2.74482in" style="shape-rendering:geometricPrecision; text-rendering:geometricPrecision; image-rendering:optimizeQuality; fill-rule:evenodd; clip-rule:evenodd"
viewBox="0 0 5.93836 6.77075"
 xmlns:xlink="http://www.w3.org/1999/xlink">
 <defs>
  <style type="text/css">
   <![CDATA[
    .fil0 {fill:white}
   ]]>
  </style>
 </defs>
 <g id="Layer_x0020_1">
  <metadata id="CorelCorpID_0Corel-Layer"/>
  <path class="fil0" d="M1.74141 2.51725c0.00158298,-0.231184 0.399679,-0.23467 0.418257,0.00734194 0,0.943478 -0.00734194,1.888 -0.00734194,2.83148 -0.0527143,0.271652 -0.39596,0.186695 -0.415111,-0.00104885 0,-0.943478 0.00419539,-1.8943 0.00419539,-2.83777z"/>
  <path class="fil0" d="M2.78969 2.51725c0.00158298,-0.231184 0.399679,-0.23467 0.418257,0.00734194 0,0.943478 -0.00734194,1.888 -0.00734194,2.83148 -0.0527143,0.271652 -0.39596,0.186695 -0.415111,-0.00104885 0,-0.943478 0.00419539,-1.8943 0.00419539,-2.83777z"/>
  <path class="fil0" d="M3.83798 2.51725c0.00158298,-0.231184 0.399679,-0.23467 0.418257,0.00734194 0,0.943478 -0.00734194,1.888 -0.00734194,2.83148 -0.0527143,0.271652 -0.39596,0.186695 -0.415111,-0.00104885 0,-0.943478 0.00419539,-1.8943 0.00419539,-2.83777z"/>
  <path class="fil0" d="M5.51646 5.81464c0.0320481,-0.763377 -0.0272021,-2.63134 -0.0107604,-4.12475 0.402602,0.074779 0.655472,-0.47743 0.156104,-0.628153 -0.318248,0.00281635 -0.639642,-0.0101 -0.95789,-0.00728367 -0.246693,-0.182198 -0.453365,-1.04489 -1.05914,-1.04844 -0.0643585,-0.0031077 -0.113314,-0.00498203 -0.156152,-0.00601145l-0.194134 0c-0.0470816,0.000718655 -0.102875,0.00169952 -0.176886,0.00255414 -0.12053,0.00136933 -0.226648,-0.000524424 -0.324813,-0.00255414l-0.53904 0c-0.555219,0.0833349 -0.890336,0.950858 -1.01394,1.0629l-0.954743 -0.00844905c-0.403748,0.0590948 -0.395989,0.694803 0.134408,0.627046 -0.00551616,1.2119 0.00231135,3.18357 0.00615713,4.15255 0.10639,0.51142 0.42894,0.858803 0.940681,0.936699l3.2463 -0.0169078c0.585034,-0.119277 0.795755,-0.42693 0.903854,-0.939204zm-0.597086 -4.11383c-0.00786636,1.35041 -0.0346897,2.70082 -0.0425463,4.05124 -0.0565601,0.287676 -0.199514,0.322472 -0.353005,0.38888l-3.07722 0c-0.185141,-0.0127027 -0.314606,-0.150733 -0.375779,-0.321161 0,-1.37862 -0.00189375,-2.74874 -0.00189375,-4.12735 1.27299,0 2.57745,0.00839078 3.85045,0.00839078zm-0.994881 -0.644265c-0.637903,0.00281635 -1.2737,-0.00490434 -1.9116,-0.00208798 0.118287,-0.142226 0.234466,-0.434077 0.342216,-0.418248 0.406963,0 0.835,-0.00632222 1.24196,-0.00632222 0.150587,0.0656501 0.214771,0.287248 0.327425,0.426658z"/>
 </g>
</svg>
